<?xml version="1.0" encoding="UTF-8" standalone="no"?>
<!-- Created with Inkscape (http://www.inkscape.org/) -->

<svg
   xmlns:dc="http://purl.org/dc/elements/1.1/"
   xmlns:cc="http://creativecommons.org/ns#"
   xmlns:rdf="http://www.w3.org/1999/02/22-rdf-syntax-ns#"
   xmlns:svg="http://www.w3.org/2000/svg"
   xmlns="http://www.w3.org/2000/svg"
   xmlns:sodipodi="http://sodipodi.sourceforge.net/DTD/sodipodi-0.dtd"
   xmlns:inkscape="http://www.inkscape.org/namespaces/inkscape"
   width="5.282196mm"
   height="5.282196mm"
   viewBox="0 0 18.716442 18.716442"
   id="svg2"
   version="1.1"
   inkscape:version="0.91 r13725"
   sodipodi:docname="no-stars.svg">
  <defs
     id="defs4" />
  <sodipodi:namedview
     id="base"
     pagecolor="#ffffff"
     bordercolor="#666666"
     borderopacity="1.0"
     inkscape:pageopacity="0.0"
     inkscape:pageshadow="2"
     inkscape:zoom="16"
     inkscape:cx="4.6695759"
     inkscape:cy="3.4208181"
     inkscape:document-units="px"
     inkscape:current-layer="g5900"
     showgrid="false"
     fit-margin-top="0"
     fit-margin-left="0"
     fit-margin-right="0"
     fit-margin-bottom="0"
     inkscape:window-width="1920"
     inkscape:window-height="940"
     inkscape:window-x="0"
     inkscape:window-y="1"
     inkscape:window-maximized="1" />
  <metadata
     id="metadata7">
    <rdf:RDF>
      <cc:Work
         rdf:about="">
        <dc:format>image/svg+xml</dc:format>
        <dc:type
           rdf:resource="http://purl.org/dc/dcmitype/StillImage" />
        <dc:title></dc:title>
      </cc:Work>
    </rdf:RDF>
  </metadata>
  <g
     inkscape:label="Layer 1"
     inkscape:groupmode="layer"
     id="layer1"
     transform="translate(-62.560379,-151.46495)">
    <g
       id="g5893"
       transform="matrix(0.15664605,0,0,0.15664605,92.248185,146.77435)"
       style="stroke-width:4.78786411;stroke-miterlimit:4;stroke-dasharray:none">
      <g
         id="g5900"
         transform="matrix(0.70710678,0.70710678,-0.70710678,0.70710678,25.483862,118.22673)"
         style="stroke-width:4.78786411;stroke-miterlimit:4;stroke-dasharray:none">
        <path
           style="opacity:1;fill:#dc6868;fill-opacity:1;fill-rule:evenodd;stroke:#000000;stroke-width:0.99999999;stroke-linecap:round;stroke-linejoin:round;stroke-miterlimit:4;stroke-dasharray:none;stroke-dashoffset:0;stroke-opacity:1"
           d="M 9.2285156 0.49804688 A 8.8612387 8.8612387 0 0 0 3.0917969 3.0917969 A 8.8612387 8.8612387 0 0 0 3.0917969 15.625 A 8.8612387 8.8612387 0 0 0 15.625 15.625 A 8.8612387 8.8612387 0 0 0 15.625 3.0917969 A 8.8612387 8.8612387 0 0 0 9.2285156 0.49804688 z M 9.453125 2.7753906 A 6.5835106 6.5835106 0 0 1 13.115234 3.953125 C 13.049598 3.9964467 12.977796 4.0261103 12.919922 4.0839844 L 4.0234375 12.980469 C 3.9886861 13.01522 3.9748169 13.059945 3.9453125 13.097656 A 6.5835106 6.5835106 0 0 1 4.703125 4.703125 A 6.5835106 6.5835106 0 0 1 9.453125 2.7753906 z M 14.826172 5.6933594 A 6.5835106 6.5835106 0 0 1 14.013672 14.013672 A 6.5835106 6.5835106 0 0 1 5.7128906 14.832031 C 5.7438323 14.806782 5.7816761 14.796449 5.8105469 14.767578 L 14.707031 5.8710938 C 14.759705 5.8184203 14.785553 5.7525458 14.826172 5.6933594 z "
           transform="matrix(4.5140416,-4.5140416,4.5140416,4.5140416,-214.45716,89.606443)"
           id="path5886" />
      </g>
    </g>
  </g>
</svg>
